<svg version="1.1" xmlns="http://www.w3.org/2000/svg" xmlns:xlink="http://www.w3.org/1999/xlink" width="152.34838" height="317.20504" viewBox="0,0,152.34838,317.20504"><defs><linearGradient x1="320.00004" y1="174.33336" x2="320.00004" y2="310.13336" gradientUnits="userSpaceOnUse" id="color-1"><stop offset="0" stop-color="#57bf00"/><stop offset="1" stop-color="#afff19"/></linearGradient></defs><g transform="translate(-249.18719,4.91665)"><g stroke-miterlimit="10"><path d="M254.34184,312.28839v-257.94344h131.31634v257.94344z" fill-opacity="0.01" fill="#000000" stroke="none" stroke-width="0" stroke-linecap="butt"/><path d="M288.56868,302.69856c0.62981,-5.24695 15.40795,-128.36522 15.40795,-128.36522c0,0 7.11007,2.4723 15.99852,2.4723c9.31148,0 16.05411,-2.4723 16.05411,-2.4723c0,0 14.74102,122.80903 15.401,128.30739c0.04534,0.37771 -0.08297,0.7295 -0.40778,0.94424c-2.09581,1.38556 -11.23442,6.54837 -31.04733,6.54837c-19.72363,0 -28.95981,-5.22096 -31.01887,-6.57136c-0.30584,-0.20058 -0.42873,-0.5207 -0.3876,-0.86342z" fill="url(#color-1)" stroke="#000000" stroke-width="2" stroke-linecap="butt"/><path d="M256.50003,120.25002c0,-34.10358 28.42992,-61.75 63.5,-61.75c35.07008,0 63.5,27.64642 63.5,61.75c0,34.10358 -28.42992,61.75 -63.5,61.75c-35.07008,0 -63.5,-27.64642 -63.5,-61.75z" fill="#afff19" stroke="#000000" stroke-width="2" stroke-linecap="butt"/><path d="M257.59574,108.90868c0,0 -9.8462,-46.67789 -6.83648,-57.75373c1.01922,-3.75075 22.79088,13.90492 25.69557,12.88335c2.6273,-0.924 19.72115,-45.00881 24.13151,-44.37197c4.41036,0.63684 12.74269,30.96018 15.83748,30.59615c2.14469,-0.25226 30.96091,-57.97931 35.89928,-53.98059c2.60101,2.1061 1.15776,65.59259 6.44184,62.80176c7.91703,-4.18145 26.30129,-28.11647 29.13422,-26.74437c2.75233,1.33306 -1.83523,31.62245 -4.40327,47.54262c-0.93256,5.78122 17.91735,-6.91356 17.00778,-2.02547c-0.90957,4.88809 -16.94265,41.72692 -16.94265,41.72692" fill="#afff19" stroke="#000000" stroke-width="2" stroke-linecap="round"/><path d="M269.03873,125.25003c0,-12.968 10.51265,-24.48065 23.48065,-24.48065c12.968,0 23.48065,11.51265 23.48065,24.48065c0,12.968 -10.51265,25.48065 -23.48065,25.48065c-12.968,0 -23.48065,-12.51265 -23.48065,-25.48065z" fill-opacity="0.50196" fill="#000000" stroke-opacity="0.50196" stroke="#000000" stroke-width="0" stroke-linecap="butt"/><path d="M324.00003,125.25003c0,-12.968 10.51265,-24.48065 23.48065,-24.48065c12.968,0 23.48065,11.51265 23.48065,24.48065c0,12.968 -10.51265,25.48065 -23.48065,25.48065c-12.968,0 -23.48065,-12.51265 -23.48065,-25.48065z" fill-opacity="0.50196" fill="#000000" stroke-opacity="0.50196" stroke="#000000" stroke-width="0" stroke-linecap="butt"/><path d="M269.03873,124.25002c0,-12.968 10.51265,-24.48065 23.48065,-24.48065c12.968,0 23.48065,11.51265 23.48065,24.48065c0,12.968 -10.51265,22.48065 -23.48065,22.48065c-12.968,0 -23.48065,-9.51265 -23.48065,-22.48065z" fill="#80bb13" stroke="#000000" stroke-width="2" stroke-linecap="butt"/><path d="M269.03873,124.25002c0,-12.968 10.51265,-24.48065 23.48065,-24.48065c12.968,0 23.48065,11.51265 23.48065,24.48065c0,12.968 -46.9613,12.968 -46.9613,0z" fill="#80bb13" stroke="#000000" stroke-width="2" stroke-linecap="butt"/><path d="M324.00003,124.25002c0,-12.968 10.51265,-24.48065 23.48065,-24.48065c12.968,0 23.48065,11.51265 23.48065,24.48065c0,12.968 -10.51265,22.48065 -23.48065,22.48065c-12.968,0 -23.48065,-9.51265 -23.48065,-22.48065z" fill="#80bb13" stroke="#000000" stroke-width="2" stroke-linecap="butt"/><path d="M324.00003,124.25002c0,-12.968 10.51265,-24.48065 23.48065,-24.48065c12.968,0 23.48065,11.51265 23.48065,24.48065c0,12.968 -46.9613,12.968 -46.9613,0z" fill="#80bb13" stroke="#000000" stroke-width="2" stroke-linecap="butt"/><path d="M278.29714,94.73282c0,0 6.62999,-4.49679 10.33976,-5.29582c3.81811,-0.82236 12.25325,0.42964 12.25325,0.42964c0,0 -8.1544,0.05144 -11.97251,0.8738c-3.70977,0.79903 -10.6205,3.99237 -10.6205,3.99237z" fill="#000000" stroke="none" stroke-width="0" stroke-linecap="butt"/><path d="M349.89322,88.17344c-3.81811,-0.82236 -11.97251,-0.87381 -11.97251,-0.87381c0,0 8.43514,-1.252 12.25325,-0.42964c3.70977,0.79903 10.33975,5.29582 10.33975,5.29582c0,0 -6.91072,-3.19334 -10.6205,-3.99237z" fill="#000000" stroke="none" stroke-width="0" stroke-linecap="butt"/><path d="M347.03715,159.82077l-53.55519,0.17595" fill="none" stroke="#000000" stroke-width="1" stroke-linecap="round"/><path d="M286.05385,152.65491c0,0 -5.78179,0.08144 -10.83164,-3.51184c-4.25868,-3.0303 -6.18347,-8.3368 -6.18347,-8.3368" fill="none" stroke-opacity="0.50196" stroke="#000000" stroke-width="1" stroke-linecap="round"/><path d="M370.96133,140.80627c0,0 -1.9248,5.30649 -6.18347,8.3368c-5.04985,3.59328 -10.83164,3.51184 -10.83164,3.51184" fill="none" stroke-opacity="0.50196" stroke="#000000" stroke-width="1" stroke-linecap="round"/><path d="M314.4943,143.7192l1.50573,-14.68083" fill="none" stroke-opacity="0.50196" stroke="#000000" stroke-width="1" stroke-linecap="round"/><path d="M325.50576,143.7192l-1.50573,-14.68083" fill="none" stroke-opacity="0.50196" stroke="#000000" stroke-width="1" stroke-linecap="round"/></g></g></svg>