<svg version="1.1" xmlns="http://www.w3.org/2000/svg" xmlns:xlink="http://www.w3.org/1999/xlink" width="168.66666" height="304.16287" viewBox="0,0,168.66666,304.16287"><defs><linearGradient x1="294.36681" y1="125.15099" x2="294.36681" y2="133.75313" gradientUnits="userSpaceOnUse" id="color-1"><stop offset="0" stop-color="#1a1a1a" stop-opacity="0"/><stop offset="1" stop-color="#1a1a1a"/></linearGradient><linearGradient x1="345.32813" y1="125.15099" x2="345.32813" y2="133.75313" gradientUnits="userSpaceOnUse" id="color-2"><stop offset="0" stop-color="#1a1a1a" stop-opacity="0"/><stop offset="1" stop-color="#1a1a1a"/></linearGradient></defs><g transform="translate(-235.66669,-8.12552)"><g stroke-miterlimit="10"><path d="M254.34186,312.28839v-257.94344h131.31634v257.94344z" fill-opacity="0.01" fill="#000000" stroke="none" stroke-width="0" stroke-linecap="butt"/><path d="M288.56865,302.69856c0.62981,-5.24695 15.40795,-128.36522 15.40795,-128.36522c0,0 7.11007,2.4723 15.99852,2.4723c9.31148,0 16.05411,-2.4723 16.05411,-2.4723c0,0 14.74102,122.80903 15.401,128.30739c0.04534,0.37771 -0.08297,0.7295 -0.40778,0.94424c-2.09581,1.38556 -11.23442,6.54837 -31.04733,6.54837c-19.72363,0 -28.95981,-5.22096 -31.01887,-6.57136c-0.30584,-0.20058 -0.42873,-0.5207 -0.3876,-0.86342z" fill="#000000" stroke="#000000" stroke-width="2" stroke-linecap="butt"/><path d="M322.76095,186.50008c0,0 5.64141,40.14088 5.63595,40.95367c-0.00549,0.8184 -8.18125,11.18709 -8.39688,11.18709c-0.21563,0 -8.39139,-10.36869 -8.39689,-11.18709c-0.00546,-0.81279 5.63595,-40.95367 5.63595,-40.95367z" fill="#ffffff" stroke="#000000" stroke-width="2" stroke-linecap="round"/><path d="M328.50001,181.25008c0,3.54382 -3.80558,5.16666 -8.5,5.16666c-4.69442,0 -8.5,-1.62284 -8.5,-5.16666c0,-3.36773 -0.40108,-7.18566 3.96927,-7.63133c0.22853,-0.0233 8.83293,-0.0233 9.06146,0c4.37035,0.44567 3.96927,4.2636 3.96927,7.63133z" fill="#ffffff" stroke="#000000" stroke-width="2" stroke-linecap="butt"/><g><path d="M256.50001,114.25008c0,-34.10358 28.42992,-61.75 63.5,-61.75c35.07008,0 63.5,27.64642 63.5,61.75c0,34.10358 -28.42992,61.75 -63.5,61.75c-35.07008,0 -63.5,-27.64642 -63.5,-61.75z" fill="#000000" stroke="#000000" stroke-width="2" stroke-linecap="butt"/><path d="M269.03871,118.25008c0,-12.968 10.51265,-24.48065 23.48065,-24.48065c12.968,0 23.48065,11.51265 23.48065,24.48065c0,12.968 -10.51265,22.48065 -23.48065,22.48065c-12.968,0 -23.48065,-9.51265 -23.48065,-22.48065z" fill="#ffffff" stroke="#000000" stroke-width="2" stroke-linecap="butt"/><path d="M324.00001,118.25008c0,-12.968 10.51265,-24.48065 23.48065,-24.48065c12.968,0 23.48065,11.51265 23.48065,24.48065c0,12.968 -10.51265,22.48065 -23.48065,22.48065c-12.968,0 -23.48065,-9.51265 -23.48065,-22.48065z" fill="#ffffff" stroke="#000000" stroke-width="2" stroke-linecap="butt"/><g stroke-linecap="butt"><path d="M279.91936,118.33581c0,-9.11441 6.53665,-17.58883 14.6,-17.58883c8.06335,0 14.6,8.47442 14.6,17.58883c0,9.11441 -6.53665,15.41737 -14.6,15.41737c-8.06335,0 -14.6,-6.30296 -14.6,-15.41737z" fill="#000000" stroke="none" stroke-width="0"/><path d="M302.80521,104.01395c2.69669,2.3288 4.73622,5.70581 5.69999,9.47647c-1.60044,0.6279 -7.61889,4.90168 -10.58558,-0.18224c-2.83225,-4.85352 4.70407,-9.17444 4.88559,-9.29423z" fill="#ffffff" stroke="#ffffff" stroke-width="0.125"/><path d="M306.62206,127.2253c-2.62423,4.0682 -7.06557,6.52788 -12.10269,6.52788c-5.24813,0 -9.84953,-2.67007 -12.42283,-7.04755c-1.38037,-2.34817 26.10212,-1.92444 24.52553,0.51967z" fill="url(#color-1)" stroke="none" stroke-width="0"/></g><g stroke-linecap="butt"><path d="M330.88066,118.33581c0,-9.11441 6.53665,-17.58883 14.6,-17.58883c8.06335,0 14.6,8.47442 14.6,17.58883c0,9.11441 -6.53665,15.41737 -14.6,15.41737c-8.06335,0 -14.6,-6.30296 -14.6,-15.41737z" fill="#000000" stroke="none" stroke-width="0"/><path d="M353.76651,104.01395c2.69669,2.3288 4.73622,5.70581 5.69999,9.47647c-1.60044,0.6279 -7.61889,4.90168 -10.58558,-0.18224c-2.83225,-4.85352 4.70407,-9.17444 4.88559,-9.29423z" fill="#ffffff" stroke="#ffffff" stroke-width="0.125"/><path d="M357.58337,127.2253c-2.62423,4.0682 -7.06557,6.52788 -12.10269,6.52788c-5.24813,0 -9.84953,-2.67007 -12.42283,-7.04755c-1.38037,-2.34817 26.10212,-1.92444 24.52553,0.51967z" fill="url(#color-2)" stroke="none" stroke-width="0"/></g><path d="M344.41669,152.50008l-21.66667,4.66667" fill="none" stroke="#000000" stroke-width="1" stroke-linecap="round"/><path d="M292.51937,93.76943c11.05392,0 20.32381,8.36492 22.81948,18.86586c-7.74275,0.00251 -14.81884,-4.65883 -22.5616,-4.65311c-7.47253,0.00552 -15.61172,4.67807 -23.08424,4.68215c2.48546,-10.51456 11.76225,-18.8949 22.82636,-18.8949z" fill="#000000" stroke="#000000" stroke-width="2" stroke-linecap="butt"/><path d="M347.49305,93.76943c11.05392,0 20.32382,8.36492 22.81948,18.86586c-7.51167,0.00244 -15.35669,-4.65914 -22.86836,-4.65362c-7.70361,0.00566 -15.07388,4.67846 -22.77748,4.68266c2.48546,-10.51456 11.76226,-18.8949 22.82636,-18.8949z" fill="#000000" stroke="#000000" stroke-width="2" stroke-linecap="butt"/><g stroke="#000000" stroke-width="2" stroke-linecap="butt"><path d="M403.33335,77.16666c0,12.05821 -37.3096,20.83334 -83.33333,20.83334c-46.02373,0 -83.33333,-8.77511 -83.33333,-20.83334c0,-12.05821 37.3096,-22.83334 83.33333,-22.83334c46.02373,0 83.33333,10.77511 83.33333,22.83334z" fill="#000000"/><path d="M372.13336,73.2078c0,7.21112 -23.34089,10.95888 -52.13333,10.95888c-28.79245,0 -52.13333,-3.74774 -52.13333,-10.95888v-50.42735c0,-7.21112 23.34088,-13.65493 52.13333,-13.65493c28.79244,0 52.13333,6.44379 52.13333,13.65493z" fill="#000000"/><path d="M372.95095,75.36705c0,5.14789 -23.86365,10.43306 -52.99259,10.43306c-29.12891,0 -52.99259,-5.28517 -52.99259,-10.43306c0,0 -0.01708,-5.9148 0.25,-6.46695c0.22606,-0.46735 23.61366,6.93719 52.74259,6.93719c29.12894,0 52.33238,-7.55538 52.74259,-6.93719c0.45461,0.68511 0.25,6.46695 0.25,6.46695z" fill="#ffffff"/></g></g></g></g></svg>