<svg version="1.1" xmlns="http://www.w3.org/2000/svg" xmlns:xlink="http://www.w3.org/1999/xlink" width="235.77955" height="312.87922" viewBox="0,0,235.77955,312.87922"><defs><radialGradient cx="320.00002" cy="117.25" r="80.58216" gradientUnits="userSpaceOnUse" id="color-1"><stop offset="0" stop-color="#ff5800"/><stop offset="1" stop-color="#ff8819"/></radialGradient><radialGradient cx="320.00003" cy="117.25001" r="113.96038" gradientUnits="userSpaceOnUse" id="color-2"><stop offset="0" stop-color="#ff5800"/><stop offset="1" stop-color="#ff8819"/></radialGradient><radialGradient cx="320.00004" cy="117.25002" r="61.75" gradientUnits="userSpaceOnUse" id="color-3"><stop offset="0" stop-color="#ffef40"/><stop offset="1" stop-color="#ffde00"/></radialGradient></defs><g transform="translate(-202.06133,0.59083)"><g stroke-miterlimit="10"><path d="M254.34186,312.28839v-257.94344h131.31634v257.94344z" fill-opacity="0.01" fill="#000000" stroke="none" stroke-width="0" stroke-linecap="butt"/><g stroke="#000000" stroke-width="2" stroke-linecap="butt"><path d="M232.07148,189.74512c0,0 33.78837,-44.5522 37.01987,-78.14231c3.23151,-33.59011 -21.58644,-82.28133 -21.58644,-82.28133c0,0 44.08196,33.74313 77.3996,36.94843c33.31763,3.2053 83.02404,-21.515 83.02404,-21.515c0,0 -33.74313,44.08196 -36.94842,77.39961c-3.20529,33.31764 21.515,83.02404 21.515,83.02404c0,0 -44.08196,-33.74313 -77.39961,-36.94843c-33.31763,-3.2053 -83.02404,21.51501 -83.02404,21.51501z" fill="url(#color-1)"/><path d="M309.08694,230.68665c0,0 -7.61118,-55.39515 -29.07794,-81.43196c-21.46677,-26.03682 -73.44561,-42.91776 -73.44561,-42.91776c0,0 55.03066,-7.31066 80.85628,-28.6033c25.8256,-21.29264 43.49345,-73.92027 43.49345,-73.92027c0,0 7.31066,55.03066 28.6033,80.85628c21.29264,25.8256 73.92027,43.49346 73.92027,43.49346c0,0 -55.03065,7.31068 -80.85627,28.60331c-25.8256,21.29263 -43.49346,73.92026 -43.49346,73.92026z" fill="url(#color-2)"/></g><path d="M258.25004,117.25002c0,-34.10359 27.64641,-61.75 61.75,-61.75c34.10359,0 61.75,27.64641 61.75,61.75c0,34.10359 -27.64641,61.75 -61.75,61.75c-34.10359,0 -61.75,-27.64641 -61.75,-61.75z" fill="url(#color-3)" stroke="#000000" stroke-width="2" stroke-linecap="butt"/><path d="M348.40006,138.40002c0,0 -0.53269,26.06605 -28.4,26c-28.66642,-0.06794 -28.4,-26 -28.4,-26" fill="none" stroke="#000000" stroke-width="1" stroke-linecap="round"/><path d="" fill="#ffffff" stroke="none" stroke-width="0" stroke-linecap="butt"/><g stroke="none" stroke-width="0" stroke-linecap="butt"><path d="M281.92607,112.75002c0,-7.85526 5.02479,-14.22319 11.22319,-14.22319c6.19841,0 11.2232,6.36793 11.2232,14.22319c0,7.85526 -5.0248,14.22319 -11.2232,14.22319c-6.19841,0 -11.22318,-6.36795 -11.22318,-14.22319z" fill="#000000"/><path d="M295.2179,108.05871c-1.76639,-3.01557 0.44293,-6.17787 3.47486,-7.67857c2.65484,1.91493 4.63309,5.16292 5.36762,9.02525c-2.94951,1.89365 -7.23715,1.39392 -8.84248,-1.34668z" fill="#ffffff"/></g><g stroke="none" stroke-width="0" stroke-linecap="butt"><path d="M335.95936,112.75001c0,-7.85526 5.02479,-14.22319 11.22319,-14.22319c6.19841,0 11.2232,6.36793 11.2232,14.22319c0,7.85526 -5.0248,14.22319 -11.2232,14.22319c-6.19841,0 -11.22318,-6.36795 -11.22318,-14.22319z" fill="#000000"/><path d="M349.25121,108.05869c-1.76639,-3.01557 0.44293,-6.17787 3.47486,-7.67857c2.65484,1.91493 4.63309,5.16292 5.36762,9.02525c-2.94951,1.89365 -7.23715,1.39392 -8.84248,-1.34668z" fill="#ffffff"/></g></g></g></svg>