<svg version="1.1" xmlns="http://www.w3.org/2000/svg" xmlns:xlink="http://www.w3.org/1999/xlink" width="181.7099" height="353.26726" viewBox="0,0,181.7099,353.26726"><defs><linearGradient x1="320.00001" y1="174.33336" x2="320.00001" y2="310.13336" gradientUnits="userSpaceOnUse" id="color-1"><stop offset="0" stop-color="#401900"/><stop offset="1" stop-color="#804a0d"/></linearGradient><radialGradient cx="344.62384" cy="77.62372" r="63.5" gradientUnits="userSpaceOnUse" id="color-2"><stop offset="0" stop-color="#662c00"/><stop offset="1" stop-color="#804a0d"/></radialGradient><linearGradient x1="280.05561" y1="127.33538" x2="279.26997" y2="135.90158" gradientUnits="userSpaceOnUse" id="color-3"><stop offset="0" stop-color="#804a0d" stop-opacity="0"/><stop offset="1" stop-color="#804a0d"/></linearGradient><linearGradient x1="349.11905" y1="126.64009" x2="348.33341" y2="135.20628" gradientUnits="userSpaceOnUse" id="color-4"><stop offset="0" stop-color="#804a0d" stop-opacity="0"/><stop offset="1" stop-color="#804a0d"/></linearGradient><linearGradient x1="366.94815" y1="-38.0575" x2="353.22156" y2="111.61004" gradientUnits="userSpaceOnUse" id="color-5"><stop offset="0" stop-color="#bfbfbf"/><stop offset="1" stop-color="#4d4d4d"/></linearGradient></defs><g transform="translate(-251.12079,40.97887)"><g stroke-miterlimit="10"><path d="M254.34184,312.28839v-257.94344h131.31634v257.94344z" fill-opacity="0.01" fill="#000000" stroke="none" stroke-width="0" stroke-linecap="butt"/><path d="M288.56865,302.69856c0.62981,-5.24695 15.40795,-128.36522 15.40795,-128.36522c0,0 7.11007,2.4723 15.99852,2.4723c9.31148,0 16.05411,-2.4723 16.05411,-2.4723c0,0 14.74102,122.80903 15.401,128.30739c0.04534,0.37771 -0.08297,0.7295 -0.40778,0.94424c-2.09581,1.38556 -11.23442,6.54837 -31.04733,6.54837c-19.72363,0 -28.95981,-5.22096 -31.01887,-6.57136c-0.30584,-0.20058 -0.42873,-0.5207 -0.3876,-0.86342z" fill="url(#color-1)" stroke="#000000" stroke-width="2" stroke-linecap="butt"/><path d="M252.37573,110.33536c3.1147,-33.96105 33.95076,-58.8954 68.87427,-55.69243c34.92351,3.20297 60.70965,33.33037 57.59495,67.29141c-3.1147,33.96105 -33.95076,58.8954 -68.87427,55.69243c-34.92351,-3.20297 -60.70965,-33.33037 -57.59495,-67.29141z" fill="url(#color-2)" stroke="#000000" stroke-width="2" stroke-linecap="butt"/><path d="M264.49671,115.46381c1.18437,-12.9138 12.70455,-23.41821 25.61835,-22.23384c12.9138,1.18437 22.33106,13.60904 21.14668,26.52284c-1.18437,12.9138 -12.52188,21.42657 -25.43569,20.24219c-12.9138,-1.18437 -22.51372,-11.61739 -21.32935,-24.5312z" fill="#ffffff" stroke="#000000" stroke-width="2" stroke-linecap="butt"/><path d="M319.2283,120.48346c1.18437,-12.9138 12.70455,-23.41821 25.61835,-22.23384c12.9138,1.18437 22.33106,13.60904 21.14668,26.52284c-1.18437,12.9138 -12.52188,21.42657 -25.43569,20.24219c-12.9138,-1.18437 -22.51372,-11.61739 -21.32935,-24.5312z" fill="#ffffff" stroke="#000000" stroke-width="2" stroke-linecap="butt"/><g stroke-linecap="butt"><path d="M266.29097,119.22915c0.83242,-9.07632 8.11573,-16.91832 16.14538,-16.18189c8.02965,0.73643 13.76501,9.77243 12.93258,18.84875c-0.83242,9.07632 -7.91741,14.75594 -15.94706,14.01951c-8.02965,-0.73643 -13.96333,-7.61004 -13.1309,-16.68636z" fill="#000000" stroke="none" stroke-width="0"/><path d="M290.38918,107.05732c2.47273,2.56536 4.19531,6.11452 4.81068,9.95745c-1.6511,0.47911 -8.03472,4.18536 -10.52469,-1.14827c-2.37714,-5.09191 5.52232,-8.70647 5.71402,-8.80918z" fill="#ffffff" stroke="#ffffff" stroke-width="0.125"/><path d="M292.07018,130.52026c-2.98481,3.81153 -7.63224,5.8553 -12.6483,5.39525c-5.2262,-0.47931 -9.56451,-3.55847 -11.72725,-8.15268c-1.16014,-2.46443 26.16879,0.46752 24.37557,2.75743z" fill="url(#color-3)" stroke="none" stroke-width="0"/></g><g stroke-linecap="butt"><path d="M335.35441,118.53385c0.83242,-9.07632 8.11573,-16.91832 16.14538,-16.18189c8.02965,0.73643 13.76501,9.77243 12.93258,18.84875c-0.83242,9.07632 -7.91741,14.75594 -15.94706,14.01951c-8.02965,-0.73643 -13.96333,-7.61004 -13.1309,-16.68636z" fill="#000000" stroke="none" stroke-width="0"/><path d="M359.45262,106.36202c2.47273,2.56536 4.19531,6.11452 4.81068,9.95745c-1.6511,0.47911 -8.03472,4.18536 -10.52469,-1.14827c-2.37714,-5.09191 5.52232,-8.70647 5.71402,-8.80918z" fill="#ffffff" stroke="#ffffff" stroke-width="0.125"/><path d="M361.13363,129.82496c-2.98481,3.81153 -7.63224,5.8553 -12.6483,5.39525c-5.2262,-0.47931 -9.56451,-3.55847 -11.72725,-8.15268c-1.16014,-2.46443 26.16879,0.46752 24.37557,2.75743z" fill="url(#color-4)" stroke="none" stroke-width="0"/></g><path d="M276.41224,86.91555c0,0 7.01298,-3.87248 10.78022,-4.32935c3.87726,-0.47021 12.1628,1.54694 12.1628,1.54694c0,0 -8.12502,-0.69352 -12.00228,-0.22331c-3.76724,0.45688 -10.94074,3.00571 -10.94074,3.00571z" fill="#000000" stroke="none" stroke-width="0" stroke-linecap="butt"/><path d="M348.40799,89.95574c-3.72705,-1.16763 -11.84267,-1.96361 -11.84267,-1.96361c0,0 8.51423,-0.47638 12.24128,0.69125c3.62129,1.13451 9.81287,6.21802 9.81287,6.21802c0,0 -6.59019,-3.81115 -10.21149,-4.94566z" fill="#000000" stroke="none" stroke-width="0" stroke-linecap="butt"/><path d="M315.51903,57.29727l8.45624,-32.36917l2.4273,33.36734" fill="#723a06" stroke="#000000" stroke-width="2" stroke-linecap="round"/><g stroke="#000000"><path d="M383.50825,113.42502l-5.75481,-2.64871c0,0 -0.46362,-0.5851 0.84739,-2.86226c1.31023,-2.2758 2.07971,-2.1375 2.07971,-2.1375l5.13323,3.71044l0.23717,0.1456c0.19203,0.11242 -0.16858,1.08541 -0.80544,2.17322c-0.63686,1.08781 -1.3088,1.87852 -1.50083,1.7661z" fill="#1a1a1a" stroke-width="1" stroke-linecap="butt"/><g stroke-width="2" stroke-linecap="butt"><path d="M359.78722,-38.71426l71.65129,41.94812l-50.66669,108.69644c0,0 -10.64557,8.43561 -52.07794,-15.41797c-41.40726,-23.83912 -38.89105,-37.83966 -38.89105,-37.83966z" fill="url(#color-5)"/><path d="M431.63698,2.92175c-2.04548,3.49388 -19.74863,-3.06724 -39.54106,-14.65468c-19.79243,-11.58744 -34.17918,-23.81327 -32.13369,-27.30715c2.04548,-3.49388 19.74862,3.06724 39.54106,14.65469c19.79243,11.58744 34.17918,23.81327 32.1337,27.30716z" fill="#bfbfbf"/></g><path d="M380.7296,112.33441c0,0 0.79582,31.36658 -31.34649,26.44764c-42.05363,-6.43572 -59.97979,-79.61071 -59.97979,-79.61071" fill="none" stroke-width="2" stroke-linecap="round"/><g fill="#404040" stroke-width="1" stroke-linecap="butt"><path d="M283.83131,58.12925l2.30552,-3.93802l5.75481,2.64871c0,0 0.46363,0.5851 -0.84739,2.86226c-1.31022,2.27579 -2.07971,2.13749 -2.07971,2.13749z"/><path d="M285.09497,56.21755c-0.63685,1.08781 -1.30881,1.87853 -1.50083,1.7661c-0.19203,-0.11242 0.16859,-1.08541 0.80544,-2.17322c0.63685,-1.08781 1.30881,-1.87853 1.50083,-1.7661c0.19203,0.11242 -0.16859,1.08541 -0.80544,2.17322z"/></g></g><path d="M315.00781,155.26262c0.26418,-2.88046 2.81342,-5.00139 5.69389,-4.73721c2.88047,0.26418 5.00139,2.81343 4.73721,5.69389c-0.26418,2.88046 -2.81342,5.00139 -5.69389,4.73721c-2.88047,-0.26418 -5.00139,-2.81342 -4.73721,-5.69389z" fill="#000000" stroke="#000000" stroke-width="1" stroke-linecap="butt"/></g></g></svg>