<svg version="1.1" xmlns="http://www.w3.org/2000/svg" xmlns:xlink="http://www.w3.org/1999/xlink" width="150.34838" height="319.20505" viewBox="0,0,150.34838,319.20505"><defs><linearGradient x1="320.00005" y1="174.33334" x2="320.00005" y2="310.13334" gradientUnits="userSpaceOnUse" id="color-1"><stop offset="0" stop-color="#273806"/><stop offset="1" stop-color="#354d08"/></linearGradient><linearGradient x1="320.00005" y1="55.50001" x2="320.00005" y2="179.00001" gradientUnits="userSpaceOnUse" id="color-2"><stop offset="0" stop-color="#283506"/><stop offset="1" stop-color="#415f0a"/></linearGradient><linearGradient x1="325.3614" y1="-6.91666" x2="325.3614" y2="116.58334" gradientUnits="userSpaceOnUse" id="color-3"><stop offset="0" stop-color="#151e03"/><stop offset="1" stop-color="#324907"/></linearGradient><linearGradient x1="319.88766" y1="149.21551" x2="319.88766" y2="179.83519" gradientUnits="userSpaceOnUse" id="color-4"><stop offset="0" stop-color="#aaaaaa"/><stop offset="1" stop-color="#924949"/></linearGradient><linearGradient x1="291.37501" y1="136.5" x2="291.37501" y2="152.74998" gradientUnits="userSpaceOnUse" id="color-5"><stop offset="0" stop-color="#570909"/><stop offset="1" stop-color="#000000"/></linearGradient><linearGradient x1="347.11493" y1="137.2477" x2="347.11493" y2="153.50001" gradientUnits="userSpaceOnUse" id="color-6"><stop offset="0" stop-color="#570909"/><stop offset="1" stop-color="#000000"/></linearGradient><linearGradient x1="333.12501" y1="168.24997" x2="333.12501" y2="186.99999" gradientUnits="userSpaceOnUse" id="color-7"><stop offset="0" stop-color="#570909"/><stop offset="1" stop-color="#570909" stop-opacity="0"/></linearGradient><linearGradient x1="311.75001" y1="169.25001" x2="311.75001" y2="187.25002" gradientUnits="userSpaceOnUse" id="color-8"><stop offset="0" stop-color="#570909"/><stop offset="1" stop-color="#570909" stop-opacity="0"/></linearGradient><linearGradient x1="282.09792" y1="119.56525" x2="282.09792" y2="176.58335" gradientUnits="userSpaceOnUse" id="color-9"><stop offset="0" stop-color="#000000"/><stop offset="1" stop-color="#125918"/></linearGradient><linearGradient x1="356.61149" y1="120.02552" x2="356.61149" y2="172.63246" gradientUnits="userSpaceOnUse" id="color-10"><stop offset="0" stop-color="#000000"/><stop offset="1" stop-color="#125918"/></linearGradient><radialGradient cx="274.85272" cy="173.58334" r="23.48065" gradientUnits="userSpaceOnUse" id="color-11"><stop offset="0" stop-color="#aaaaaa"/><stop offset="1" stop-color="#924949"/></radialGradient><radialGradient cx="365.85273" cy="169.58334" r="23.48065" gradientUnits="userSpaceOnUse" id="color-12"><stop offset="0" stop-color="#aaaaaa"/><stop offset="1" stop-color="#924949"/></radialGradient></defs><g transform="translate(-250.18721,6.91666)"><g stroke="none" stroke-width="0" stroke-miterlimit="10"><path d="M254.34185,312.28839v-257.94344h131.31634v257.94344z" fill-opacity="0.01" fill="#000000" stroke-linecap="butt"/><path d="M288.5687,302.69856c0.62981,-5.24695 15.40795,-128.36522 15.40795,-128.36522c0,0 7.11007,2.4723 15.99852,2.4723c9.31148,0 16.05411,-2.4723 16.05411,-2.4723c0,0 14.74102,122.80903 15.401,128.30739c0.04534,0.37771 -0.08297,0.7295 -0.40778,0.94424c-2.09581,1.38556 -11.23442,6.54837 -31.04733,6.54837c-19.72363,0 -28.95981,-5.22096 -31.01887,-6.57136c-0.30584,-0.20058 -0.42873,-0.5207 -0.3876,-0.86342z" fill="url(#color-1)" stroke-linecap="butt"/><path d="M256.50005,117.25001c0,-34.10358 28.42992,-61.75 63.5,-61.75c35.07008,0 63.5,27.64642 63.5,61.75c0,34.10358 -28.42992,61.75 -63.5,61.75c-35.07008,0 -63.5,-27.64642 -63.5,-61.75z" fill="url(#color-2)" stroke-linecap="butt"/><path d="M257.59576,105.90867c0,0 -9.8462,-46.67789 -6.83648,-57.75373c1.01922,-3.75075 22.79088,13.90492 25.69557,12.88335c2.6273,-0.924 19.72115,-45.00881 24.13151,-44.37197c4.41036,0.63684 12.74269,30.96018 15.83748,30.59615c2.14469,-0.25226 30.96091,-57.97931 35.89928,-53.98059c2.60101,2.1061 1.15776,65.59259 6.44184,62.80176c7.91703,-4.18145 26.30129,-28.11647 29.13422,-26.74437c2.75233,1.33306 -1.83523,31.62245 -4.40327,47.54262c-0.93256,5.78122 17.91735,-6.91356 17.00778,-2.02547c-0.90957,4.88809 -16.94265,41.72692 -16.94265,41.72692" fill="url(#color-3)" stroke-linecap="round"/><path d="M269.03873,122.25002c0,-12.968 10.51265,-24.48065 23.48065,-24.48065c12.968,0 23.48065,11.51265 23.48065,24.48065c0,12.968 -10.51265,25.48065 -23.48065,25.48065c-12.968,0 -23.48065,-12.51265 -23.48065,-25.48065z" fill-opacity="0.50196" fill="#000000" stroke-linecap="butt"/><path d="M324.00005,122.25002c0,-12.968 10.51265,-24.48065 23.48065,-24.48065c12.968,0 23.48065,11.51265 23.48065,24.48065c0,12.968 -10.51265,25.48065 -23.48065,25.48065c-12.968,0 -23.48065,-12.51265 -23.48065,-25.48065z" fill-opacity="0.50196" fill="#000000" stroke-linecap="butt"/><path d="M269.03873,121.25001c0,-12.968 10.51265,-24.48065 23.48065,-24.48065c12.968,0 23.48065,11.51265 23.48065,24.48065c0,12.968 -10.51265,22.48065 -23.48065,22.48065c-12.968,0 -23.48065,-9.51265 -23.48065,-22.48065z" fill="#000000" stroke-linecap="butt"/><path d="M324.00005,121.25001c0,-12.968 10.51265,-24.48065 23.48065,-24.48065c12.968,0 23.48065,11.51265 23.48065,24.48065c0,12.968 -10.51265,22.48065 -23.48065,22.48065c-12.968,0 -23.48065,-9.51265 -23.48065,-22.48065z" fill="#000000" stroke-linecap="butt"/><path d="M347.39145,125.42078c-1.03296,1.97286 -2.78116,3.16567 -4.76388,3.16567c-2.06577,0 -3.87698,-1.29484 -4.88988,-3.41767c-0.54334,-1.13873 10.27434,-0.93325 9.65376,0.252z" fill="none" stroke-linecap="butt"/><path d="M278.29715,84.39947c0,0 6.62999,-4.49679 10.33976,-5.29582c3.81811,-0.82236 12.25325,0.42964 12.25325,0.42964c0,0 -8.1544,0.05144 -11.97251,0.8738c-3.70977,0.79903 -10.6205,3.99237 -10.6205,3.99237z" fill="#000000" stroke-linecap="butt"/><path d="M349.89324,85.17343c-3.81811,-0.82236 -11.97251,-0.87381 -11.97251,-0.87381c0,0 8.43514,-1.252 12.25325,-0.42964c3.70977,0.79903 10.33975,5.29582 10.33975,5.29582c0,0 -6.91072,-3.19334 -10.6205,-3.99237z" fill="#000000" stroke-linecap="butt"/><path d="M286.05386,149.6549c0,0 -5.78179,0.08144 -10.83164,-3.51184c-4.25868,-3.0303 -6.18347,-8.3368 -6.18347,-8.3368" fill="none" stroke-linecap="round"/><path d="M370.96135,137.80626c0,0 -1.9248,5.30649 -6.18347,8.3368c-5.04985,3.59328 -10.83164,3.51184 -10.83164,3.51184" fill="none" stroke-linecap="round"/><path d="M316.00005,126.03837l-1.50573,14.68083" fill="none" stroke-linecap="round"/><path d="M325.50578,140.7192l-1.50573,-14.68083" fill="none" stroke-linecap="round"/><path d="M286.68391,177.37397c-7.05482,-5.34206 0.05849,-9.96046 0.56051,-11.98707c0.34715,-1.40144 -6.14255,-2.92947 -2.38595,-9.38357c3.48926,-5.99476 23.32896,2.12138 34.9881,1.47438c11.26078,-0.6249 24.58476,-14.08114 33.8132,-5.2924c5.45637,5.19639 -1.38934,8.77221 -1.29255,10.3197c0.14204,2.27056 6.59471,3.65052 2.42645,10.11332c-4.81625,7.46749 -22.33238,0.5073 -33.77704,1.14241c-11.48893,0.63756 -25.14668,10.56913 -34.33273,3.61323z" fill="url(#color-4)" stroke-linecap="butt"/><path d="M355.7986,156.75626c0,0 -0.77781,1.61535 -1.86117,2.93985c-0.76411,0.93419 -1.94502,1.48674 -1.95338,2.26274c-0.01296,1.20497 1.86281,3.08313 2.87553,4.66549c0.81347,1.27103 0.77903,3.71377 0.77903,3.71377c0,0 -22.73545,-1.19639 -34.42782,-0.73095c-12.22611,0.48668 -37.19387,3.6789 -37.19387,3.6789c0,0 -0.00855,-2.44501 1.02266,-4.29109c0.57219,-1.02436 2.26414,-2.8256 2.30405,-3.55735c0.04453,-0.81633 -1.17304,-1.56515 -1.84487,-2.57241c-0.7773,-1.16538 -1.02832,-2.53822 -1.02832,-2.53822c0,0 24.88736,1.46662 35.73029,1.05521c10.7833,-0.40914 35.59784,-4.62594 35.59784,-4.62594z" fill="#000000" stroke-linecap="round"/><path d="M273.51779,139.83014c-0.01886,-0.06441 -0.03562,-0.12917 -0.05048,-0.19423l-0.02815,0.00938l-0.49077,-1.47232c-0.04749,-0.1321 -0.07337,-0.27451 -0.07337,-0.42297c0,-0.69036 0.55964,-1.25 1.25,-1.25c0.28595,0 0.54948,0.09602 0.7601,0.25758l0.9899,0.74242l-0.00426,0.00569l0.01979,0.00615c0.24109,0.19468 0.47736,0.36696 0.71015,0.52035c0.01527,-0.02092 0.03134,-0.04195 0.04823,-0.06306c0.78087,-0.97609 1.75695,-0.19522 1.75695,-0.19522c0.63112,0.50633 1.35185,1.17779 2.12609,1.70118c0.69533,0.15408 1.42726,0.31998 2.2296,0.58618c0.2662,0.08832 0.53007,0.1832 0.79223,0.28256c0.73145,0.00713 1.46489,-0.00724 2.15803,0.2024c0.82059,0.24819 1.59846,0.61505 2.3792,0.97475c0.71079,-0.10836 1.39891,-0.23498 1.95631,-0.26857c1.03409,-0.06232 2.04866,0.31475 3.06406,0.52014c0.61153,0.1237 1.2328,0.01609 1.85019,-0.13356c0.95105,-0.40606 1.88305,-0.84559 2.87623,-1.10556c1.34676,-0.35252 3.16972,-0.09861 4.70284,0.09206c0.06262,-0.01965 0.12564,-0.04009 0.18907,-0.06135c0.13665,-0.04555 0.27278,-0.09153 0.40856,-0.13765c0.36165,-0.20051 0.70898,-0.40023 1.03598,-0.5924c0.4383,-0.09202 0.8766,-0.18403 1.31489,-0.27605l1.14529,-0.45812c0.15061,-0.06433 0.31643,-0.09993 0.49056,-0.09993c0.03954,0 0.07864,0.00184 0.11724,0.00543l0.59411,-0.47529c0.21512,-0.17514 0.48962,-0.28013 0.78864,-0.28013c0.69036,0 1.25,0.55964 1.25,1.25c0,0.29902 -0.105,0.57352 -0.28013,0.78864l-0.99378,1.24222l-0.01317,-0.01054c-0.01035,0.02117 -0.02085,0.04228 -0.0315,0.06332c-0.77441,1.52948 -3.1392,1.71095 -3.79028,3.17656c-0.42715,0.96154 0.21369,2.32361 0.10278,3.36296c-0.11681,1.09466 -0.64931,2.12492 -1.20661,3.07431l-0.05363,0.04027l0.01632,0.01224l-0.74127,0.98836c-0.22746,0.31022 -0.59457,0.51164 -1.00873,0.51164c-0.59488,0 -1.0927,-0.41555 -1.21902,-0.9722l-0.49366,-1.97463l0.19955,-0.04989c-0.17751,-0.52424 -0.32731,-1.05264 -0.44285,-1.58973c-1.1174,-0.18837 -2.10514,-1.17349 -2.20511,-2.27371c-0.02549,0.38307 -0.07,0.88606 -0.11951,1.13505c-0.09558,0.48064 -0.15992,0.96697 -0.23988,1.45046l-0.01018,0.01852l0.00638,0.00128l-0.24546,1.22729c-0.10493,0.58424 -0.61583,1.02756 -1.23027,1.02756c-0.44077,0 -0.82825,-0.22813 -1.05082,-0.57276l-0.55775,-0.83662c-0.36316,0.54766 -1.04113,0.72623 -1.98787,0.14734l-0.27342,0.54683c-0.20043,0.42281 -0.63114,0.7152 -1.13014,0.7152c-0.5623,0 -1.03788,-0.37128 -1.19497,-0.88206l-0.74089,-2.22266l0.02965,-0.00988c-0.02672,-0.06132 -0.05263,-0.12303 -0.07765,-0.18517c-0.29107,-0.72285 -0.3746,-1.34938 -0.29303,-1.88717c-0.94048,0.5584 -2.13783,1.50525 -3.10745,1.4297c-0.82834,-0.06454 -2.25872,-0.86532 -2.86566,-1.49276c-0.12246,-0.12659 0.01042,-0.54193 -0.16139,-0.50314c-1.06144,0.23961 -0.51696,2.11401 -0.7811,3.16961l-0.4148,0.19048l0.10729,0.14305l-0.9899,0.74242c-0.21062,0.16156 -0.47415,0.25758 -0.7601,0.25758c-0.69036,0 -1.25,-0.55964 -1.25,-1.25v-1.5h0.21758c-0.05364,-0.64534 -0.04861,-1.29133 0.04498,-1.92678c0.04485,-0.30454 0.27085,-0.70579 0.43086,-1.0648c-0.59601,-0.24401 -1.12412,-0.56221 -1.53227,-0.98663c-0.09788,-0.00001 -0.19572,-0.00051 -0.29328,-0.00278l-0.05678,0.1514l-0.52547,-0.19705c-0.04746,-0.00726 -0.09474,-0.0156 -0.14181,-0.02518l-0.04186,-0.04369l-0.05544,-0.02079l-0.01076,0.0269l-1.22297,-0.48919c-0.44794,-0.16726 -0.77419,-0.58409 -0.8096,-1.08134c-0.3978,-0.30159 -0.69885,-0.70819 -0.86042,-1.25994zM286.91063,144.3128c-0.13751,-0.04695 -0.27473,-0.09524 -0.41173,-0.14464l-0.26075,0.34767c0.2559,-0.02498 0.47471,-0.09881 0.67248,-0.20303z" fill="url(#color-5)" stroke-linecap="butt"/><path d="M359.82184,146.46269c-0.67837,-0.16959 -0.88239,-0.62379 -0.93048,-0.99112c-0.08583,0.01863 -0.17494,0.02844 -0.26635,0.02844c-0.45391,0 -0.85131,-0.24194 -1.07028,-0.60389c-0.04453,0.0402 -0.08882,0.08072 -0.13286,0.12159c0.16417,0.68896 -0.30692,0.89383 -0.8864,0.91634c-0.07695,0.08936 -0.15269,0.18041 -0.22715,0.27324l-0.20303,1.01516c-0.10493,0.58424 -0.61583,1.02756 -1.23027,1.02756c-0.69036,0 -1.25,-0.55964 -1.25,-1.25v-0.41754c-0.52348,0.89424 -1.2144,1.95155 -2.19336,1.91626c-1.37712,-0.04965 -2.05516,-0.53795 -2.33849,-1.01608l-0.3845,0.64083c-0.21591,0.37447 -0.62035,0.62653 -1.08365,0.62653c-0.28139,0 -0.54107,-0.09298 -0.74999,-0.2499c-0.22806,0.30355 -0.59111,0.4999 -1.00001,0.4999c-0.33073,0 -0.63146,-0.12844 -0.85503,-0.33817c0.13267,0.80027 0.2321,1.60084 0.33248,1.85179l-0.08004,0.23638h0.1026v1.5c0,0.69036 -0.55964,1.25 -1.25,1.25c-0.54616,0 -1.0105,-0.35027 -1.18066,-0.83842l-0.73975,-1.97268l0.21866,-0.082c-1.65318,-2.71015 -2.92621,-4.99174 -6.53093,-5.82485c-0.33905,0.18753 -0.6678,0.37076 -0.96754,0.2018c-0.17168,-0.09677 -0.32372,-0.216 -0.4616,-0.35143l-0.08818,0.11757l-0.98836,-0.74127c-0.31022,-0.22746 -0.51164,-0.59457 -0.51164,-1.00873c0,-0.4008 0.18864,-0.75755 0.48198,-0.9863c-0.94933,-0.94761 -1.92108,-1.86015 -3.19621,-2.35311c0,0 -1.1606,-0.46424 -0.69636,-1.62483c0.46424,-1.1606 1.62483,-0.69636 1.62483,-0.69636c2.38672,0.97922 3.77613,3.37539 5.8478,4.68043c0.95688,0.09774 1.85517,0.53758 2.77393,0.86754c1.46717,0.09302 3.12712,-0.13738 4.41403,-0.13738c3.54692,0 7.03773,0.02794 10.34839,-1.10117c0.20004,-0.09003 0.40944,-0.18441 0.62929,-0.28448c0.82235,-0.37429 1.80216,-1.32851 2.86421,-1.22782c1.40629,-0.72064 2.70406,-1.53977 4.28494,-1.88046l0.12317,0.04349v-0.04958h1.25c0.69036,0 1.25,0.55964 1.25,1.25c0,0.46331 -0.25206,0.86774 -0.62653,1.08365l-1.23035,0.73821l-0.16713,-0.27855c-0.43998,0.34493 -0.89351,0.66869 -1.35195,0.98385l0.19783,0.32971l-0.43211,0.25927c0.28124,0.6071 0.431,1.24464 0.33597,1.879l-0.26305,1.05802c0,0 -0.30317,1.21268 -1.51585,0.90951z" fill="url(#color-6)" stroke-linecap="butt"/><path d="M334.95151,172.98123c-0.08157,0.24458 -0.1815,0.46707 -0.3978,0.56847c-0.10665,0.05 -0.21666,0.09679 -0.32926,0.13978c0.12167,0.87034 0.36724,1.88761 0.39447,2.18735c0.28661,3.15519 -0.07354,5.73471 -0.51186,8.83421l-0.0218,0.03101l0.01547,0.00309l-0.24546,1.22729c-0.10493,0.58424 -0.61583,1.02756 -1.23027,1.02756c-0.69036,0 -1.25,-0.55964 -1.25,-1.25v-2.11379c-0.4485,-1.36229 -0.87603,-2.73845 -1.21314,-4.08489c-0.41074,-1.6405 -0.03907,-3.69988 -0.4915,-5.21765c-0.22856,-0.76675 -1.25603,-1.63392 -1.78404,-2.57626c-0.25524,-0.00466 -0.50911,-0.00741 -0.76132,-0.00741c0,0 -1.25,0 -1.25,-1.25c0,-1.25 1.25,-1.25 1.25,-1.25c0.40252,0 0.81004,0.00817 1.22106,0.02048c0.84546,-0.73188 1.80389,-0.48218 2.63615,0.09519c2.24717,0.06297 4.50347,-0.0006 6.5366,-0.81386l0.12127,0.02359l-0.01023,-0.05114l1.22469,-0.24494c0.08709,-0.01921 0.17759,-0.02934 0.27046,-0.02934c0.69036,0 1.25,0.55964 1.25,1.25c0,0.499 -0.2924,0.92971 -0.7152,1.13014l-1.11806,0.55903c0.56941,0.8457 0.13411,1.89411 -0.86433,2.91163l0.13344,0.04448l-0.49089,1.47266c-0.15709,0.51078 -0.63267,0.88206 -1.19497,0.88206c-0.69036,0 -1.25,-0.55964 -1.25,-1.25v-1.25h0.24931l-0.15416,-0.47835c0.11891,-0.12945 0.34613,-0.2934 0.57018,-0.45382c-0.12908,-0.1223 -0.26517,-0.17756 -0.42019,-0.0921zM332.05935,175.51726c0.01112,0.2613 0.02778,0.54445 0.05958,0.85958c0.01584,0.15699 0.03865,0.31524 0.06721,0.47448c-0.01432,-0.23861 -0.03256,-0.48107 -0.05504,-0.72813c-0.01722,-0.18922 -0.04256,-0.39243 -0.07174,-0.60592z" fill="url(#color-7)" stroke-linecap="butt"/><path d="M303.87501,181.25001c-1.25,0 -1.25,-1.25 -1.25,-1.25l0.01701,-0.2945c-0.24035,-1.4426 -1.02438,-4.23931 -0.3637,-5.85684c-0.38918,-0.21181 -0.65331,-0.62439 -0.65331,-1.09866c0,-0.39906 0.187,-0.75444 0.47815,-0.9833l1.24098,-0.99279l0.04361,0.05451c0.10046,-0.09364 0.20777,-0.18017 0.3235,-0.25796c0.2901,-0.19499 1.00348,-0.25135 1.82977,-0.24652c0.34003,-0.57395 1.08399,-0.57395 1.08399,-0.57395c1.99184,0.0026 3.69653,-0.17588 5.6469,-0.49574l0.1031,0.03978v-0.04403h1.25c0.45474,0 0.85276,0.24282 1.07148,0.60587c1.28638,-0.26892 2.75448,-0.22232 4.08617,-0.02571c0.11401,-0.01808 0.22812,-0.03661 0.34235,-0.05558v-0.27458h1.5c0.69036,0 1.25,0.55964 1.25,1.25c0,0.61444 -0.44333,1.12533 -1.02756,1.23027l-1.08723,0.21745l-0.15949,0.79743l-0.05289,-0.01058c-0.00817,0.10444 -0.024,0.20863 -0.04892,0.31253c-0.09175,0.38256 -0.97566,1.49848 -2.00268,2.57453c-0.14041,1.82267 -1.23254,4.22469 -2.82995,4.62807c0.00019,0.61746 -0.0227,1.23559 -0.09654,1.80248c0.01494,0.89116 -0.04213,1.78811 -0.21901,2.69298l-0.24546,1.22729c-0.10493,0.58424 -0.61583,1.02756 -1.23027,1.02756c-0.69036,0 -1.25,-0.55964 -1.25,-1.25v-1.5h0.27527c0.01444,-0.07045 0.02825,-0.14118 0.04143,-0.21218c-0.17299,-1.43549 0.01766,-2.71815 0.12959,-4.68631c-0.41677,-0.51365 -0.37021,-1.13479 -0.06601,-1.78319c-0.04212,-0.50224 -0.08654,-0.99703 -0.12714,-1.47971c-0.01028,-0.12226 -0.03571,-0.31128 -0.0697,-0.5422c-0.37454,-0.06961 -0.70891,-0.25581 -1.02519,-0.59034c-0.19203,0.43347 -0.48573,0.85944 -0.80161,1.31067c-0.00063,0.44668 -0.03513,0.88375 -0.10737,1.27928c0.2918,0.36008 0.53104,0.78671 0.7173,1.1668l-0.10796,0.28719h0.1414v1.25c0,0.69036 -0.55964,1.25 -1.25,1.25c-0.58089,0 -1.06923,-0.39623 -1.2095,-0.93317l-0.49241,-1.72343l0.21932,-0.06266c-0.0945,-0.17766 -0.18991,-0.35484 -0.28606,-0.53162l-1.11524,-1.11524c-0.22621,-0.22621 -0.36612,-0.53871 -0.36612,-0.88388c0,-0.11568 0.01571,-0.22769 0.04512,-0.33401l-0.40039,-0.13346c-0.23153,0.104 -0.60901,0.10163 -1.24976,-0.03216c0.44296,1.00205 0.41247,2.24122 0.58802,3.29414l0.01701,0.7055c0,0 0,1.25 -1.25,1.25z" fill="url(#color-8)" stroke-linecap="butt"/><path d="M273.37501,176.58335c-2.5,0 -2.5,-2.5 -2.5,-2.5l0.01241,-0.99876c0.74378,-7.13684 4.27445,-12.91353 7.51872,-19.15301c3.06472,-5.89419 5.6767,-11.89896 7.85807,-18.17076c1.6985,-4.8835 2.78686,-8.02943 1.66631,-13.15364c0,0 -0.52382,-2.44451 1.92068,-2.96833c2.44451,-0.52382 2.96833,1.92068 2.96833,1.92068c2.46403,11.70549 -4.68138,24.49517 -9.97563,34.6756c-2.91948,5.61393 -6.37028,10.90856 -6.98128,17.34699l0.01241,0.50124c0,0 0,2.5 -2.5,2.5z" fill="url(#color-9)" stroke-linecap="butt"/><path d="M367.49304,172.31941c-2.23607,1.11803 -3.3541,-1.11803 -3.3541,-1.11803l-0.51393,-1.11803c-1.55746,-2.0798 -3.66776,-4.00041 -4.92941,-6.27519c-2.4674,-4.44877 -2.50442,-9.85748 -3.51821,-14.71574c-1.94628,-9.32689 -4.29412,-17.3723 -10.26818,-24.96452c0,0 -1.54455,-1.9658 0.42124,-3.51035c1.9658,-1.54455 3.51035,0.42124 3.51035,0.42124c6.45072,8.22138 9.13233,16.94201 11.23182,27.03548c0.88767,4.26753 0.80752,9.37985 2.98179,13.28426c1.14706,2.0598 3.15358,3.83815 4.57059,5.72481l0.98607,1.88197c0,0 1.11803,2.23607 -1.11803,3.3541z" fill="url(#color-10)" stroke-linecap="butt"/><path d="M251.37207,173.58334c0,-12.968 10.51265,-23.48065 23.48065,-23.48065c12.968,0 23.48065,10.51265 23.48065,23.48065c0,12.968 -10.51265,23.48065 -23.48065,23.48065c-12.968,0 -23.48065,-10.51265 -23.48065,-23.48065z" fill="url(#color-11)" stroke-linecap="butt"/><path d="M255.41939,175.71631c0,-10.36297 7.43208,-19.99826 16.6,-19.99826c9.16791,0 16.6,9.63529 16.6,19.99826c0,10.36296 -7.43208,17.52934 -16.6,17.52934c-9.16791,0 -16.6,-7.16638 -16.6,-17.52934z" fill="#000000" stroke-linecap="butt"/><path d="M342.37208,169.58334c0,-12.96801 10.51264,-23.48065 23.48065,-23.48065c12.96801,0 23.48065,10.51265 23.48065,23.48065c0,12.968 -10.51264,23.48065 -23.48065,23.48065c-12.96801,0 -23.48065,-10.51265 -23.48065,-23.48065z" fill="url(#color-12)" stroke-linecap="butt"/><path d="M370.54738,176.44319c0,-4.41999 2.57296,-8.52962 5.74687,-8.52962c3.1739,0 5.74687,4.10963 5.74687,8.52962c0,4.41999 -2.57296,7.47659 -5.74687,7.47659c-3.1739,0 -5.74687,-3.0566 -5.74687,-7.47658z" fill="#000000" stroke-linecap="butt"/></g></g></svg>