<svg version="1.1" xmlns="http://www.w3.org/2000/svg" xmlns:xlink="http://www.w3.org/1999/xlink" width="158.74945" height="284.65467" viewBox="0,0,158.74945,284.65467"><defs><linearGradient x1="364.32609" y1="110.74697" x2="364.32609" y2="186.51529" gradientUnits="userSpaceOnUse" id="color-1"><stop offset="0" stop-color="#1c1003"/><stop offset="1" stop-color="#57422b"/></linearGradient><linearGradient x1="355.5757" y1="148.28447" x2="355.5757" y2="232.05133" gradientUnits="userSpaceOnUse" id="color-2"><stop offset="0" stop-color="#1c1003"/><stop offset="1" stop-color="#57422b"/></linearGradient><linearGradient x1="277.67402" y1="110.74697" x2="277.67402" y2="186.51529" gradientUnits="userSpaceOnUse" id="color-3"><stop offset="0" stop-color="#1c1003"/><stop offset="1" stop-color="#57422b"/></linearGradient><linearGradient x1="286.42438" y1="148.28447" x2="286.42438" y2="232.05133" gradientUnits="userSpaceOnUse" id="color-4"><stop offset="0" stop-color="#1c1003"/><stop offset="1" stop-color="#57422b"/></linearGradient><linearGradient x1="320.00005" y1="174.33341" x2="320.00005" y2="310.13338" gradientUnits="userSpaceOnUse" id="color-5"><stop offset="0" stop-color="#522f10"/><stop offset="1" stop-color="#635746"/></linearGradient><linearGradient x1="321" y1="63.00003" x2="321" y2="227.00003" gradientUnits="userSpaceOnUse" id="color-6"><stop offset="0" stop-color="#3f3123"/><stop offset="1" stop-color="#786854"/></linearGradient><linearGradient x1="351.72288" y1="160.83883" x2="351.72288" y2="167.58345" gradientUnits="userSpaceOnUse" id="color-7"><stop offset="0" stop-color="#0d0d0d"/><stop offset="1" stop-color="#1a1a1a"/></linearGradient><linearGradient x1="348.99639" y1="160.18947" x2="348.99639" y2="168.25012" gradientUnits="userSpaceOnUse" id="color-8"><stop offset="0" stop-color="#0d0d0d"/><stop offset="1" stop-color="#1a1a1a"/></linearGradient><linearGradient x1="344.99317" y1="159.70245" x2="344.99317" y2="168.75012" gradientUnits="userSpaceOnUse" id="color-9"><stop offset="0" stop-color="#0d0d0d"/><stop offset="1" stop-color="#1a1a1a"/></linearGradient><linearGradient x1="339.48781" y1="158.89081" x2="339.48781" y2="169.58345" gradientUnits="userSpaceOnUse" id="color-10"><stop offset="0" stop-color="#0d0d0d"/><stop offset="1" stop-color="#1a1a1a"/></linearGradient><linearGradient x1="325.98139" y1="158.08345" x2="325.98139" y2="170.75012" gradientUnits="userSpaceOnUse" id="color-11"><stop offset="0" stop-color="#0d0d0d"/><stop offset="1" stop-color="#1a1a1a"/></linearGradient><linearGradient x1="333.09465" y1="158.24146" x2="333.09465" y2="170.25012" gradientUnits="userSpaceOnUse" id="color-12"><stop offset="0" stop-color="#0d0d0d"/><stop offset="1" stop-color="#1a1a1a"/></linearGradient><linearGradient x1="292.61064" y1="160.67218" x2="292.61064" y2="167.41678" gradientUnits="userSpaceOnUse" id="color-13"><stop offset="0" stop-color="#0d0d0d"/><stop offset="1" stop-color="#1a1a1a"/></linearGradient><linearGradient x1="295.33713" y1="160.02283" x2="295.33713" y2="168.08345" gradientUnits="userSpaceOnUse" id="color-14"><stop offset="0" stop-color="#0d0d0d"/><stop offset="1" stop-color="#1a1a1a"/></linearGradient><linearGradient x1="299.34035" y1="159.53582" x2="299.34035" y2="168.58345" gradientUnits="userSpaceOnUse" id="color-15"><stop offset="0" stop-color="#0d0d0d"/><stop offset="1" stop-color="#1a1a1a"/></linearGradient><linearGradient x1="304.84571" y1="158.72412" x2="304.84571" y2="169.41678" gradientUnits="userSpaceOnUse" id="color-16"><stop offset="0" stop-color="#0d0d0d"/><stop offset="1" stop-color="#1a1a1a"/></linearGradient><linearGradient x1="318.35213" y1="157.91678" x2="318.35213" y2="170.58345" gradientUnits="userSpaceOnUse" id="color-17"><stop offset="0" stop-color="#0d0d0d"/><stop offset="1" stop-color="#1a1a1a"/></linearGradient><linearGradient x1="311.23887" y1="158.07477" x2="311.23887" y2="170.08345" gradientUnits="userSpaceOnUse" id="color-18"><stop offset="0" stop-color="#0d0d0d"/><stop offset="1" stop-color="#1a1a1a"/></linearGradient><linearGradient x1="348.89368" y1="184.36299" x2="348.89368" y2="178.30845" gradientUnits="userSpaceOnUse" id="color-19"><stop offset="0" stop-color="#0d0d0d"/><stop offset="1" stop-color="#1a1a1a"/></linearGradient><linearGradient x1="346.44614" y1="186.40464" x2="346.44614" y2="179.16873" gradientUnits="userSpaceOnUse" id="color-20"><stop offset="0" stop-color="#0d0d0d"/><stop offset="1" stop-color="#1a1a1a"/></linearGradient><linearGradient x1="342.8525" y1="187.85173" x2="342.8525" y2="179.72979" gradientUnits="userSpaceOnUse" id="color-21"><stop offset="0" stop-color="#0d0d0d"/><stop offset="1" stop-color="#1a1a1a"/></linearGradient><linearGradient x1="337.91041" y1="189.59027" x2="337.91041" y2="179.99161" gradientUnits="userSpaceOnUse" id="color-22"><stop offset="0" stop-color="#0d0d0d"/><stop offset="1" stop-color="#1a1a1a"/></linearGradient><linearGradient x1="325.78586" y1="192.33482" x2="325.78586" y2="180.96411" gradientUnits="userSpaceOnUse" id="color-23"><stop offset="0" stop-color="#0d0d0d"/><stop offset="1" stop-color="#1a1a1a"/></linearGradient><linearGradient x1="332.17134" y1="191.29529" x2="332.17134" y2="180.51526" gradientUnits="userSpaceOnUse" id="color-24"><stop offset="0" stop-color="#0d0d0d"/><stop offset="1" stop-color="#1a1a1a"/></linearGradient><linearGradient x1="295.60651" y1="184.36299" x2="295.60651" y2="178.30845" gradientUnits="userSpaceOnUse" id="color-25"><stop offset="0" stop-color="#0d0d0d"/><stop offset="1" stop-color="#1a1a1a"/></linearGradient><linearGradient x1="298.05405" y1="186.40464" x2="298.05405" y2="179.16873" gradientUnits="userSpaceOnUse" id="color-26"><stop offset="0" stop-color="#0d0d0d"/><stop offset="1" stop-color="#1a1a1a"/></linearGradient><linearGradient x1="301.64769" y1="187.85173" x2="301.64769" y2="179.72979" gradientUnits="userSpaceOnUse" id="color-27"><stop offset="0" stop-color="#0d0d0d"/><stop offset="1" stop-color="#1a1a1a"/></linearGradient><linearGradient x1="306.58978" y1="189.59027" x2="306.58978" y2="179.99161" gradientUnits="userSpaceOnUse" id="color-28"><stop offset="0" stop-color="#0d0d0d"/><stop offset="1" stop-color="#1a1a1a"/></linearGradient><linearGradient x1="318.71433" y1="192.33482" x2="318.71433" y2="180.96411" gradientUnits="userSpaceOnUse" id="color-29"><stop offset="0" stop-color="#0d0d0d"/><stop offset="1" stop-color="#1a1a1a"/></linearGradient><linearGradient x1="312.32885" y1="191.29529" x2="312.32885" y2="180.51526" gradientUnits="userSpaceOnUse" id="color-30"><stop offset="0" stop-color="#0d0d0d"/><stop offset="1" stop-color="#1a1a1a"/></linearGradient><radialGradient cx="314.00004" cy="134" r="23.48065" gradientUnits="userSpaceOnUse" id="color-31"><stop offset="0" stop-color="#a5a5a5"/><stop offset="1" stop-color="#838383"/></radialGradient><radialGradient cx="326.00004" cy="134" r="23.48065" gradientUnits="userSpaceOnUse" id="color-32"><stop offset="0" stop-color="#a5a5a5"/><stop offset="1" stop-color="#838383"/></radialGradient><linearGradient x1="243.58227" y1="79.12865" x2="402.76229" y2="90.69944" gradientUnits="userSpaceOnUse" id="color-33"><stop offset="0" stop-color="#341e05"/><stop offset="1" stop-color="#3a1f00"/></linearGradient><linearGradient x1="327.13383" y1="30.41439" x2="323.08771" y2="86.07761" gradientUnits="userSpaceOnUse" id="color-34"><stop offset="0" stop-color="#341e05"/><stop offset="1" stop-color="#3a1f00"/></linearGradient></defs><g transform="translate(-244.10958,-29.13371)"><g stroke-width="0" stroke-miterlimit="10"><path d="M254.3419,313.78839v-257.94344h131.31634v257.94344z" fill-opacity="0.01" fill="#000000" stroke="none" stroke-linecap="butt"/><path d="M387.00659,140.661c0.14011,21.11033 -6.31837,45.0104 -7.00042,45.83131c-0.68205,0.82091 -5.18247,-20.54607 -15.44061,-39.89813c-10.25814,-19.35207 -22.92221,-35.84726 -22.92221,-35.84726c0,0 45.21419,7.45654 45.36324,29.91408z" fill="url(#color-1)" stroke="none" stroke-linecap="butt"/><path d="M375.9988,148.28447c0,0 0.063,20.64839 -6.51689,42.1209c-6.18516,20.1844 -19.50142,41.05548 -20.39792,41.6346c-0.8965,0.57912 1.20509,-21.1553 -2.79016,-42.69061c-3.99525,-21.53531 -11.14126,-41.0649 -11.14126,-41.0649z" fill="url(#color-2)" stroke="none" stroke-linecap="butt"/><path d="M300.35676,110.74697c0,0 -12.66407,16.49519 -22.92221,35.84726c-10.25814,19.35206 -14.75856,40.71904 -15.44061,39.89813c-0.68205,-0.82091 -7.14053,-24.72098 -7.00042,-45.83131c0.14905,-22.45754 45.36324,-29.91408 45.36324,-29.91408z" fill="url(#color-3)" stroke="none" stroke-linecap="butt"/><path d="M306.84749,148.28447c0,0 -7.14601,19.52959 -11.14126,41.0649c-3.99525,21.53531 -1.89366,43.26973 -2.79016,42.69061c-0.8965,-0.57912 -14.21276,-21.4502 -20.39792,-41.6346c-6.57989,-21.47251 -6.51689,-42.1209 -6.51689,-42.1209z" fill="url(#color-4)" stroke="none" stroke-linecap="butt"/><path d="M288.56865,302.69856c0.62981,-5.24695 15.40795,-128.36522 15.40795,-128.36522c0,0 7.11007,2.4723 15.99852,2.4723c9.31148,0 16.05411,-2.4723 16.05411,-2.4723c0,0 14.74102,122.80903 15.401,128.30739c0.04534,0.37771 -0.08297,0.7295 -0.40778,0.94424c-2.09581,1.38556 -11.23442,6.54837 -31.04733,6.54837c-19.72363,0 -28.95981,-5.22096 -31.01887,-6.57136c-0.30584,-0.20058 -0.42873,-0.5207 -0.3876,-0.86342z" fill="url(#color-5)" stroke="none" stroke-linecap="butt"/><path d="M257.5,124.75003c0,-34.10358 28.42992,-61.75 63.5,-61.75c35.07008,0 63.5,27.64642 63.5,61.75c0,20.87616 -10.65312,39.33272 -26.96127,50.50934c-10.33307,7.08166 -22.93644,51.74066 -36.53873,51.74066c-12.97834,0 -25.04731,-44.2862 -35.10256,-50.78471c-17.11606,-11.06176 -28.39744,-29.98238 -28.39744,-51.46529z" fill="url(#color-6)" stroke="none" stroke-linecap="butt"/><path d="M283.625,158.75c0,0 24.89913,-3.25 38,-3.25c12.80924,0 39.75,3.25 39.75,3.25c0,0 -31.28513,64.31994 -40.25,64.5c-8.87572,0.17827 -37.5,-64.5 -37.5,-64.5z" fill="#000000" stroke="#000000" stroke-linecap="round"/><g stroke="none" stroke-linecap="butt"><g><path d="M349.59303,167.58345c0,0 -0.58522,-6.83333 2.21862,-6.83333c2.80383,0 2.04112,6.83333 2.04112,6.83333z" fill="url(#color-7)"/><path d="M346.45093,168.25012c0,0 -0.69941,-8.16667 2.65152,-8.16667c3.35092,0 2.43939,8.16667 2.43939,8.16667z" fill="url(#color-8)"/><path d="M342.13602,168.75012c0,0 -0.78505,-9.16667 2.97619,-9.16667c3.76124,0 2.73809,9.16667 2.73809,9.16667z" fill="url(#color-9)"/><path d="M336.1112,169.58345c0,0 -0.92778,-10.83333 3.51732,-10.83333c4.4451,0 3.23593,10.83333 3.23593,10.83333z" fill="url(#color-10)"/><path d="M321.98139,170.75012c0,0 -1.09907,-12.83333 4.16667,-12.83333c5.26574,0 3.83333,12.83333 3.83333,12.83333z" fill="url(#color-11)"/><path d="M329.30244,170.25012c0,0 -1.04197,-12.16667 3.95022,-12.16667c4.99219,0 3.6342,12.16667 3.6342,12.16667z" fill="url(#color-12)"/></g><g><path d="M290.48075,167.41678c0,0 -0.76271,-6.83333 2.04112,-6.83333c2.80384,0 2.21862,6.83333 2.21862,6.83333z" fill="url(#color-13)"/><path d="M292.79168,168.08345c0,0 -0.91153,-8.16667 2.43939,-8.16667c3.35093,0 2.65152,8.16667 2.65152,8.16667z" fill="url(#color-14)"/><path d="M296.48322,168.58345c0,0 -1.02315,-9.16667 2.73809,-9.16667c3.76124,0 2.97619,9.16667 2.97619,9.16667z" fill="url(#color-15)"/><path d="M301.46907,169.41678c0,0 -1.20917,-10.83333 3.23593,-10.83333c4.4451,0 3.51732,10.83333 3.51732,10.83333z" fill="url(#color-16)"/><path d="M314.35213,170.58345c0,0 -1.43241,-12.83333 3.83333,-12.83333c5.26574,0 4.16667,12.83333 4.16667,12.83333z" fill="url(#color-17)"/><path d="M307.44666,170.08345c0,0 -1.35799,-12.16667 3.6342,-12.16667c4.99219,0 3.95022,12.16667 3.95022,12.16667z" fill="url(#color-18)"/></g></g><g stroke="none" stroke-linecap="butt"><g><path d="M350.80565,178.30845c0,0 0.68468,6.1342 -1.83229,6.1342c-2.51697,0 -1.99162,-6.1342 -1.99162,-6.1342z" fill="url(#color-19)"/><path d="M348.73117,179.16873c0,0 0.81827,7.33112 -2.18981,7.33112c-3.00808,0 -2.38024,-7.33112 -2.38024,-7.33112z" fill="url(#color-20)"/><path d="M345.41732,179.72979c0,0 0.91846,8.22881 -2.45795,8.22881c-3.37642,0 -2.67169,-8.22881 -2.67169,-8.22881z" fill="url(#color-21)"/><path d="M340.94157,179.99161c0,0 1.08546,9.72495 -2.90485,9.72495c-3.99031,0 -3.15746,-9.72495 -3.15746,-9.72495z" fill="url(#color-22)"/><path d="M329.37661,180.96411c0,0 1.28585,11.52033 -3.44114,11.52033c-4.72699,0 -3.74036,-11.52033 -3.74036,-11.52033z" fill="url(#color-23)"/><path d="M335.57555,180.51526c0,0 1.21906,10.92187 -3.26237,10.92187c-4.48143,0 -3.54606,-10.92187 -3.54606,-10.92187z" fill="url(#color-24)"/></g><g><path d="M297.51845,178.30845c0,0 0.52535,6.1342 -1.99162,6.1342c-2.51697,0 -1.83229,-6.1342 -1.83229,-6.1342z" fill="url(#color-25)"/><path d="M300.33907,179.16873c0,0 0.62784,7.33112 -2.38024,7.33112c-3.00808,0 -2.18981,-7.33112 -2.18981,-7.33112z" fill="url(#color-26)"/><path d="M304.21251,179.72979c0,0 0.70473,8.22881 -2.67169,8.22881c-3.37641,0 -2.45795,-8.22881 -2.45795,-8.22881z" fill="url(#color-27)"/><path d="M309.62093,179.99161c0,0 0.83285,9.72495 -3.15746,9.72495c-3.99031,0 -2.90485,-9.72495 -2.90485,-9.72495z" fill="url(#color-28)"/><path d="M322.30508,180.96411c0,0 0.98663,11.52033 -3.74036,11.52033c-4.72699,0 -3.44114,-11.52033 -3.44114,-11.52033z" fill="url(#color-29)"/><path d="M315.73307,180.51526c0,0 0.93537,10.92187 -3.54606,10.92187c-4.48143,0 -3.26237,-10.92187 -3.26237,-10.92187z" fill="url(#color-30)"/></g></g><path d="M270.03873,128.25007c0,-12.968 10.51265,-24.48065 23.48065,-24.48065c12.968,0 23.48065,11.51265 23.48065,24.48065c0,12.968 -10.51265,22.48065 -23.48065,22.48065c-12.968,0 -23.48065,-9.51265 -23.48065,-22.48065z" fill="url(#color-31)" stroke="none" stroke-linecap="butt"/><path d="M325.00005,128.25007c0,-12.968 10.51265,-24.48065 23.48065,-24.48065c12.968,0 23.48065,11.51265 23.48065,24.48065c0,12.968 -10.51265,22.48065 -23.48065,22.48065c-12.968,0 -23.48065,-9.51265 -23.48065,-22.48065z" fill="url(#color-32)" stroke="none" stroke-linecap="butt"/><path d="M274.74953,128.14589c0,-11.71752 8.40354,-22.61227 18.76982,-22.61227c10.36627,0 18.76982,10.89475 18.76982,22.61227c0,11.71752 -8.40354,19.82063 -18.76982,19.82063c-10.36627,0 -18.76982,-8.10311 -18.76982,-19.82063z" fill="#000000" stroke="none" stroke-linecap="butt"/><path d="M328.96781,128.20115c0,-12.1814 8.73623,-23.50746 19.51289,-23.50746c10.77666,0 19.51289,11.32605 19.51289,23.50746c0,12.1814 -8.73623,20.6053 -19.51289,20.6053c-10.77666,0 -19.51289,-8.4239 -19.51289,-20.6053z" fill="#000000" stroke="none" stroke-linecap="butt"/><path d="M279.29715,98.73287c0,0 6.62999,-4.49679 10.33976,-5.29582c3.81811,-0.82236 12.25325,0.42964 12.25325,0.42964c0,0 -8.1544,0.05144 -11.97251,0.8738c-3.70977,0.79903 -10.6205,3.99237 -10.6205,3.99237z" fill="#000000" stroke="none" stroke-linecap="butt"/><path d="M351.26967,95.18494c-3.81811,-0.82236 -11.97251,-0.87381 -11.97251,-0.87381c0,0 8.43514,-1.252 12.25325,-0.42964c3.70977,0.79903 10.33975,5.29582 10.33975,5.29582c0,0 -6.91072,-3.19334 -10.6205,-3.99237z" fill="#000000" stroke="none" stroke-linecap="butt"/><g stroke="none" stroke-linecap="butt"><path d="M318.17699,97.08116c-43.90126,-3.19117 -74.53326,-18.7986 -74.06205,-25.28108c0.47121,-6.48249 35.75201,-2.4141 79.65327,0.77708c43.90126,3.19117 79.55741,10.37183 79.0862,16.85432c-0.47121,6.48249 -40.77616,10.84086 -84.67742,7.64969z" fill="url(#color-33)"/><path d="M276.7785,77.72643c-0.71139,-1.45367 16.10578,-45.90343 17.72055,-48.08702c1.48383,-2.00654 63.26737,2.45392 64.97705,4.72317c1.52951,2.03011 12.06638,48.8228 10.58014,50.1442c-0.70716,0.62874 -23.94366,3.20217 -46.90451,1.57519c-23.11031,-1.63757 -45.94502,-7.48051 -46.37323,-8.35553z" fill="url(#color-34)"/><path d="M275.99271,78.24746c-0.79673,-0.51147 2.61295,-13.86953 4.14501,-14.50257c0.70633,-0.29185 22.46885,5.96265 44.39903,7.5567c21.78047,1.58316 43.72881,-1.49648 44.65216,-1.08359c1.65776,0.74131 3.44897,14.59213 2.00414,14.94955c-0.68746,0.17007 -24.44876,3.42764 -47.88076,1.73797c-23.43199,-1.68967 -46.84001,-8.35019 -47.31958,-8.65806z" fill="#1a0b00"/></g></g></g></svg>